<svg width="75" height="48" viewBox="0 0 75 48" fill="none" xmlns="http://www.w3.org/2000/svg">
<path d="M71.0294 43.7776H30.8823V12.6665H71.0294C71.8817 12.6665 72.5735 13.3634 72.5735 14.2221V42.2221C72.5735 43.0807 71.8817 43.7776 71.0294 43.7776Z" fill="white"/>
<path d="M72.5735 11.1112H32.4265V3.33339C32.4265 2.47472 31.7347 1.77783 30.8824 1.77783H1.54412C0.691765 1.77783 0 2.47472 0 3.33339V43.7778C0 44.6365 0.691765 45.3334 1.54412 45.3334H26.25H32.4265H72.5735C73.4259 45.3334 74.1176 44.6381 74.1176 43.7778V12.6667C74.1176 11.8065 73.4259 11.1112 72.5735 11.1112ZM71.0294 42.2223H32.4265V14.2223H71.0294V42.2223Z" fill="#100F14"/>
<path d="M16.9853 39.1112H10.8089C10.8089 29.7328 15.503 20.5706 18.426 15.7779H6.17651V9.55566H26.25V15.2552L25.6339 16.0859C25.5475 16.2026 16.9853 27.8817 16.9853 39.1112Z" fill="white"/>
<path d="M41.0409 33.3912H47.8674V35.9999H37.1281V34.1068L43.8851 23.0639H37.0586V20.4443H47.7408V22.2954L41.0409 33.3912Z" fill="#100F14"/>
<path d="M54.0443 20.4443H50.9561V35.9626H54.0443V20.4443Z" fill="#100F14"/>
<path d="M66.5036 21.8786C65.557 20.9281 64.2677 20.4443 62.668 20.4443H57.1323V35.9688H60.4136V30.5134H62.6016C64.2677 30.5134 65.5895 30.0608 66.5206 29.1881C67.4671 28.2999 67.9412 27.1006 67.9412 25.5886C67.9412 24.061 67.4671 22.829 66.5036 21.8786ZM64.121 27.3183C63.7782 27.7088 63.2887 27.8954 62.668 27.8954H60.4151V23.0639H62.7004C63.2887 23.0639 63.7612 23.2972 64.104 23.7499C64.4638 24.2181 64.6259 24.8403 64.6259 25.6041C64.6259 26.3523 64.4638 26.9279 64.121 27.3183Z" fill="#100F14"/>
</svg>
